<?xml version="1.0" encoding="UTF-8"?>
<svg width="128px" height="128px" version="1.1" viewBox="0 0 128 128" xmlns="http://www.w3.org/2000/svg">
	<style>
		path { fill: #2f3132; }
		@media (prefers-color-scheme: dark) {
			path { fill: #e2e2e2; }
		}
  </style>
	<g aria-label="PDM">
		<path d="m13.653 70.04v13.307h-8v-38.693h13.067q3.9733 0 6.8533 0.93333 2.9067 0.93333 4.7733 2.6133 1.8667 1.6533 2.7467 3.9467 0.90667 2.2933 0.90667 4.9867 0 2.8533-0.93333 5.2267-0.93333 2.3733-2.8267 4.08-1.8933 1.7067-4.7733 2.6667-2.88 0.93333-6.7467 0.93333zm0-6.1333h5.0667q3.76 0 5.4933-1.8133 1.76-1.8133 1.76-4.96 0-1.44-0.45333-2.6133-0.42667-1.2-1.3333-2.0267-0.88-0.85333-2.24-1.3067t-3.2267-0.45333h-5.0667z"/>
		<path d="m73.787 63.987q0 4.24-1.44 7.8133-1.4133 3.5467-4.0267 6.1067-2.5867 2.56-6.24 4t-8.1067 1.44h-14.88v-38.693h14.88q4.4533 0 8.1067 1.44t6.24 4.0267q2.6133 2.56 4.0267 6.1067 1.44 3.5467 1.44 7.76zm-8.2133 0q0-3.04-0.8-5.4667-0.8-2.4267-2.2933-4.1067-1.4933-1.68-3.6533-2.5867-2.1333-0.90667-4.8533-0.90667h-6.8267v26.16h6.8267q2.72 0 4.8533-0.88 2.16-0.90667 3.6533-2.5867 1.4933-1.7067 2.2933-4.1333 0.8-2.4267 0.8-5.4933z"/>
		<path d="m99.253 66.547q0.48 0.93333 0.90667 1.92 0.45333 0.98667 0.85333 2.0267 0.4-1.0667 0.85333-2.08 0.45334-1.0133 0.96-1.9467l10.747-20.56q0.24-0.45333 0.50667-0.69333 0.26667-0.26667 0.56-0.37333 0.32-0.13333 0.69333-0.16 0.4-0.02667 0.93334-0.02667h6.08v38.693h-7.0667v-23.76q0-0.72 0.0267-1.5733 0.0533-0.85333 0.13333-1.76l-11.04 20.987q-0.90667 1.7333-2.8 1.7333h-1.12q-0.93334 0-1.6533-0.42667-0.72-0.45333-1.1467-1.3067l-11.12-21.04q0.08 0.90667 0.13333 1.7867 0.05333 0.85333 0.05333 1.6v23.76h-7.0667v-38.693h6.08q0.50667 0 0.90667 0.02667t0.69333 0.16q0.32 0.10667 0.56 0.37333 0.26667 0.24 0.50667 0.69333l10.827 20.64z"/>
	</g>
</svg>
